<?xml version="1.0" standalone="no"?>
<!DOCTYPE svg PUBLIC "-//W3C//DTD SVG 20010904//EN"
 "http://www.w3.org/TR/2001/REC-SVG-20010904/DTD/svg10.dtd">
<svg version="1.0" xmlns="http://www.w3.org/2000/svg"
 width="125.000000pt" height="125.000000pt" viewBox="0 0 125.000000 125.000000"
 preserveAspectRatio="xMidYMid meet">

<g transform="translate(0.000000,125.000000) scale(0.100000,-0.100000)"
fill="#000000" stroke="none">
<path d="M208 798 c-40 -33 -19 -88 32 -88 47 0 64 46 30 80 -23 23 -40 25
-62 8z"/>
<path d="M215 610 c0 -73 2 -80 20 -80 18 0 20 7 20 80 0 73 -2 80 -20 80 -18
0 -20 -7 -20 -80z"/>
<path d="M528 610 c3 -61 7 -80 18 -80 11 0 14 17 14 80 0 70 -2 80 -17 80
-16 0 -18 -9 -15 -80z"/>
<path d="M616 674 c-5 -12 -2 -15 10 -10 8 3 18 6 20 6 3 0 2 5 -1 10 -9 15
-22 12 -29 -6z"/>
<path d="M313 659 c-19 -19 -17 -118 2 -126 21 -7 21 -8 15 70 -4 55 -7 66
-17 56z"/>
<path d="M397 643 c-13 -12 -7 -33 8 -33 8 0 15 7 15 15 0 8 7 15 15 15 31 0
15 -36 -21 -49 -27 -10 -34 -17 -32 -34 3 -19 10 -22 56 -25 l52 -3 0 35 c0
62 -15 86 -53 86 -19 0 -37 -3 -40 -7z m53 -78 c0 -18 -5 -25 -20 -25 -35 0
-24 45 13 49 4 1 7 -10 7 -24z"/>
<path d="M613 643 c-8 -3 -13 -25 -13 -59 0 -47 2 -54 20 -54 18 0 20 7 20 60
0 59 -2 64 -27 53z"/>
<path d="M691 642 c-6 -2 -11 -27 -11 -58 0 -45 3 -54 18 -54 14 0 17 9 17 47
0 41 3 48 20 48 17 0 20 -8 23 -47 2 -35 7 -48 18 -48 12 0 14 12 12 58 l-3
57 -41 0 c-23 1 -47 -1 -53 -3z"/>
<path d="M826 628 c-21 -30 -20 -61 2 -81 20 -18 77 -23 86 -8 3 5 -9 8 -26 7
-23 -1 -33 4 -36 16 -2 12 6 19 32 24 25 4 36 12 36 23 0 44 -68 57 -94 19z
m62 -11 c3 -12 -3 -17 -22 -17 -25 0 -35 18 -19 34 12 12 38 2 41 -17z"/>
<path d="M957 643 c-13 -12 -7 -33 8 -33 8 0 15 7 15 15 0 8 9 15 20 15 33 0
23 -29 -17 -47 -25 -12 -38 -25 -38 -38 0 -17 8 -20 53 -23 l52 -3 0 48 c0 27
-5 54 -12 61 -13 13 -70 17 -81 5z m63 -72 c0 -24 -15 -35 -36 -27 -12 4 -13
10 -4 26 14 26 40 26 40 1z"/>
</g>
</svg>
